<?xml version="1.0" encoding="utf-8"?>
<!-- Svg Vector Icons : http://www.onlinewebfonts.com/icon -->
<!DOCTYPE svg PUBLIC "-//W3C//DTD SVG 1.1//EN" "http://www.w3.org/Graphics/SVG/1.1/DTD/svg11.dtd">
<svg version="1.1" xmlns="http://www.w3.org/2000/svg" xmlns:xlink="http://www.w3.org/1999/xlink" x="0px" y="0px" viewBox="0 0 256 256" enable-background="new 0 0 256 256" xml:space="preserve">
<metadata> Svg Vector Icons : http://www.onlinewebfonts.com/icon </metadata>
<g><g><g><path fill="#000000" d="M43.4,16.6c-5.2,1.7-11.5,7.5-13.8,12.8c-2.5,5.9-2,15.1,1.1,20.4c7.9,13.4,26,15.3,36.6,3.9c13.1-14,3.9-36.9-15.3-38C49.1,15.5,45.6,15.8,43.4,16.6z M57.8,23.4c6.4,2.8,9.9,9.1,9.2,16.9C66.1,50.3,56,57.1,46.1,54.3c-6.5-1.8-12.4-9.4-12.4-15.9c0-5.5,5-13.3,10.2-15.5C47.4,21.4,53.9,21.6,57.8,23.4z"/><path fill="#000000" d="M104.2,52c-23.6,5-44.9,18.9-58.3,37.6c-4,5.6-12.9,22.7-12.9,24.8c0,0.5-1.1,1.6-2.6,2.5c-5,3.2-12.1,11.1-14.7,16.4c-6,12.2-1.7,25.7,11.6,36.3c3.9,3.1,4.6,4.2,7.4,11.3c3.1,7.8,3.1,7.9,2.2,14.1c-1.5,11.2,1.5,21.7,8.1,28c6.3,6.1,14.9,8.5,26.3,7.7c6.7-0.6,7.1-0.5,13.7,2.4c3.7,1.6,10.3,3.9,14.7,5.1c7.2,2,9.2,2.1,23.8,2.1c14.8,0,16.4-0.2,24-2.2c9.8-2.8,22.6-8.7,30.9-14.4c7.6-5.3,17.3-14.8,22.6-22.4c3.9-5.5,12.9-22.6,12.9-24.6c0-0.5,1.2-1.7,2.7-2.6c4.7-2.8,12.7-12,15-16.9c5.6-12.1,0.7-26.2-12.5-36.2c-2.5-1.8-4.4-3.7-4.4-4.2c0-0.5-1.3-3.8-2.8-7.4l-2.8-6.5l0.9-6.6c1.7-12.2-1.4-22.1-9-29c-5.9-5.3-11-6.8-23.7-6.8c-9.7,0-10.5-0.2-16.2-2.7c-11.5-5-20-6.8-35.5-7.1C113.9,50.4,110.2,50.7,104.2,52z M141.2,58.2c22.8,4.7,43.1,18.4,56.2,37.9l4.8,7.2l-1.3,4.2c-1.7,5.8-3.8,11.1-6.8,16.9l-2.4,4.8l-5.3-0.5c-6.7-0.7-11.6,0.7-15.9,4.4c-5,4.3-6.8,8.5-6.9,15.3c0,4.8,0.3,6.4,2.3,9.6c1.5,2.6,2,4.2,1.5,5.1c-1,1.7-15.8,16.7-21.9,22.1l-5.1,4.5l-19.3-0.3c-21.7-0.5-32.2-1.7-48.7-5.9c-12-3.1-21-6.4-29.3-10.8c-5.1-2.8-5.8-3.3-6.7-6.6c-2-7.2-2.8-19.9-1.9-29.1c2.2-20.4,10.3-37.9,24.2-52.4c14.3-15.1,31.1-23.9,51.5-27.3C118.4,55.9,132,56.3,141.2,58.2z M193.3,69.6c6.7,3.7,10.7,11.2,10.5,20.2v4.2l-1.4-2c-0.7-1.1-3.8-5-6.8-8.5c-4.7-5.6-8.1-8.8-16.5-15.5c-1.5-1.2-1.2-1.3,4.2-1C187.6,67.1,190,67.8,193.3,69.6z M208.2,117.9c5,15.1,5.5,34.9,1.4,50.6c-0.8,2.8-1.5,3.5-6.4,5.9c-11.1,5.6-31,11.4-45.9,13.4l-5.5,0.7l10.7-11.1c5.9-6.1,10.8-11.2,10.8-11.2c0-0.1,1.5,0.3,3.3,1c7,2.5,14,1.1,19.7-4c4.8-4.2,6.7-8.5,6.8-14.8c0-5-2.6-11.9-5.3-14.2c-1-0.8-0.7-2,2-7.2c1.7-3.5,3.7-8.1,4.6-10.2C205.9,112.5,206.4,112.6,208.2,117.9z M29.1,129.5c-0.4,2-0.7,10.2-0.7,18.3v14.8l-2.3-2.2c-1.2-1.1-3.3-4.3-4.6-7c-4.2-8.2-3-15.5,3.7-23.7c1.6-2,3.3-3.7,3.7-3.7S29.4,127.6,29.1,129.5z M225.2,138c2.2,4.6,2.4,5.7,2,10c-0.2,3.1-1.1,6.2-2.5,8.4c-2.2,3.9-6.8,9.1-7.4,8.5c-0.2-0.2,0-2.5,0.5-5.2c0.6-2.8,0.7-10.2,0.6-18.1l-0.3-13.2l2.3,2.2C221.6,131.9,223.8,135.3,225.2,138z M190.1,136.3c4.6,2.4,7.9,9.3,6.8,14.4c-2.1,9.9-14,14.4-22,8.3c-3.5-2.6-5.3-6.4-5.3-11C169.7,138,180.9,131.5,190.1,136.3z M59.8,186.3c17.6,5.8,35.8,8.8,58.5,9.7l14,0.5l-9.9,6.7c-5.5,3.6-13.7,8.5-18.2,10.7c-8.5,4.2-21.4,9.1-24.1,9.1c-4.1,0-18.8-12-26.2-21.3c-4.3-5.4-13.6-21.1-13.6-23c0-0.2,2.3,0.7,5,2C48.1,182.1,54.6,184.6,59.8,186.3z M204.7,182.1c0,1.2-7.3,13.4-10.6,17.7c-5,6.3-15.5,16.2-22.1,20.4c-20.1,13-43.2,17.5-66.7,12.8c-6.2-1.2-15.4-4.1-16.5-5c-0.3-0.3,2.6-1.8,6.5-3.3c12.9-4.8,28-13.7,41.6-24.1c5.2-4.1,7.3-5.2,9.4-5.2c12.1,0,41.4-6.7,53.7-12.2C203.8,181.3,204.7,181.1,204.7,182.1z M56.3,213.7c2.8,2.8,6.8,6.3,8.9,7.7l3.8,2.7l-3.7,0.2c-12.5,0.8-21.3-7.5-22.3-20.8l-0.5-6.3l4.4,5.7C49.2,206.1,53.5,211,56.3,213.7z"/><path fill="#000000" d="M138.4,73.2c-4.4,3.4-1.5,10.5,4.2,10.5c1.8,0,3.1-0.7,4.2-2.1c2.3-2.8,2.1-5.6-0.3-8.1C144,71.1,141.3,70.9,138.4,73.2z"/><path fill="#000000" d="M67.3,135.1c-9,4.5-10.9,15.7-4.1,23.2c7.3,7.9,19.6,6.4,24.2-3.1C93.8,141.9,80.5,128.6,67.3,135.1z M79.7,141.7c2.5,2.3,3.6,5.9,2.8,9.3c-0.9,3.3-3.1,5.2-6.8,5.8c-7.6,1.2-12.6-5.9-9-12.8c1.6-3.1,3.3-4,7.5-4.1C76.6,139.9,78.3,140.5,79.7,141.7z"/><path fill="#000000" d="M96.7,166c-3.6,1.5-4.6,7-1.9,9.8c3.6,3.6,10.6,0.8,10.6-4.2C105.4,167.3,100.7,164.3,96.7,166z"/><path fill="#000000" d="M231.1,54.4c-0.9,0.3-2.7,1.8-3.8,3.3c-1.7,2-2.2,3.4-2.2,6.7c0,3.5,0.3,4.4,2.7,6.8c4.6,4.6,10.7,4.8,15.1,0.3C251,63.4,241.8,50,231.1,54.4z M238.7,61.2c1.2,1,1.3,4.8,0,6.1c-3,3-9.2-1-7.2-4.6C233.2,59.5,235.9,59,238.7,61.2z"/><path fill="#000000" d="M221.2,89.1c-1.5,1.1-1.8,1.9-1.6,4.6c0.6,7.7,9.9,8.3,11.7,0.9C232.5,89.8,225.5,85.9,221.2,89.1z"/><path fill="#000000" d="M12.3,181.6c-3.7,2.8-2.8,9.9,1.5,10.9c5.2,1.3,9.6-3.2,7.7-7.9C19.9,180.8,15.4,179.3,12.3,181.6z"/><path fill="#000000" d="M224.9,193.6c-3.4,2.9-4.3,6.4-2.8,10.1c1.8,4.2,4.1,5.9,8.8,5.9c3.5,0,4.3-0.3,6.4-2.7c5.2-5.8,1.9-14.5-5.9-15.4C228.2,191,227.4,191.3,224.9,193.6z M233.3,199c0.7,0.9,0.8,1.6,0.2,2.6c-2,3.2-6.7,1.2-5.5-2.3C228.6,197.4,231.7,197.1,233.3,199z"/></g></g></g>
</svg>